<?xml version="1.0" encoding="UTF-8" standalone="no"?>
<!-- Created with Inkscape (http://www.inkscape.org/) -->

<svg
   xmlns:dc="http://purl.org/dc/elements/1.1/"
   xmlns:cc="http://creativecommons.org/ns#"
   xmlns:rdf="http://www.w3.org/1999/02/22-rdf-syntax-ns#"
   xmlns:svg="http://www.w3.org/2000/svg"
   xmlns="http://www.w3.org/2000/svg"
   xmlns:xlink="http://www.w3.org/1999/xlink"
   xmlns:sodipodi="http://sodipodi.sourceforge.net/DTD/sodipodi-0.dtd"
   xmlns:inkscape="http://www.inkscape.org/namespaces/inkscape"
   width="16"
   height="16"
   id="svg2"
   version="1.1"
   inkscape:version="0.48.4 r9939"
   sodipodi:docname="favicon3.svg"
   inkscape:export-filename="/home/benny/Dropbox/crissy-files/ingegno/favicon3.png"
   inkscape:export-xdpi="90"
   inkscape:export-ydpi="90">
  <defs
     id="defs4">
    <linearGradient
       inkscape:collect="always"
       id="linearGradient5958">
      <stop
         style="stop-color:#a8a8a8;stop-opacity:1;"
         offset="0"
         id="stop5960" />
      <stop
         style="stop-color:#a8a8a8;stop-opacity:0;"
         offset="1"
         id="stop5962" />
    </linearGradient>
    <linearGradient
       id="linearGradient4407">
      <stop
         style="stop-color:#f187f5;stop-opacity:1;"
         offset="0"
         id="stop4409" />
      <stop
         style="stop-color:#4887f5;stop-opacity:0;"
         offset="1"
         id="stop4411" />
    </linearGradient>
    <linearGradient
       id="linearGradient4407-4">
      <stop
         style="stop-color:#f187f5;stop-opacity:1;"
         offset="0"
         id="stop4409-6" />
      <stop
         style="stop-color:#4887f5;stop-opacity:0;"
         offset="1"
         id="stop4411-2" />
    </linearGradient>
    <linearGradient
       inkscape:collect="always"
       xlink:href="#linearGradient4407-4"
       id="linearGradient5956"
       x1="450.13437"
       y1="282.03915"
       x2="583.76599"
       y2="103.63718"
       gradientUnits="userSpaceOnUse" />
    <linearGradient
       inkscape:collect="always"
       xlink:href="#linearGradient5958"
       id="linearGradient5964"
       x1="406.77454"
       y1="206.83049"
       x2="583.76599"
       y2="103.63718"
       gradientUnits="userSpaceOnUse" />
  </defs>
  <sodipodi:namedview
     id="base"
     pagecolor="#ffffff"
     bordercolor="#666666"
     borderopacity="1.0"
     inkscape:pageopacity="0.0"
     inkscape:pageshadow="2"
     inkscape:zoom="33.334293"
     inkscape:cx="11.222226"
     inkscape:cy="6.5280534"
     inkscape:document-units="px"
     inkscape:current-layer="layer1"
     showgrid="false"
     inkscape:window-width="1586"
     inkscape:window-height="889"
     inkscape:window-x="-2"
     inkscape:window-y="59"
     inkscape:window-maximized="0"
     fit-margin-top="1"
     fit-margin-left="1"
     fit-margin-right="1"
     fit-margin-bottom="0" />
  <metadata
     id="metadata7">
    <rdf:RDF>
      <cc:Work
         rdf:about="">
        <dc:format>image/svg+xml</dc:format>
        <dc:type
           rdf:resource="http://purl.org/dc/dcmitype/StillImage" />
        <dc:title></dc:title>
      </cc:Work>
    </rdf:RDF>
  </metadata>
  <g
     inkscape:label="Layer 1"
     inkscape:groupmode="layer"
     id="layer1"
     transform="translate(-206.94004,-206.6)">
    <path
       sodipodi:nodetypes="cscccccscccccsccscssscssscccsscccsccccscssscsss"
       inkscape:connector-curvature="0"
       d="m 221.65355,222.12683 c 0,0 1.14492,-3.2114 1.14492,-4.98496 0,-3.46496 -1.45741,-6.50803 -3.65434,-8.2427 0.60127,-0.24739 1.20489,-0.39952 1.85407,-0.11275 0.28827,0.1254 0.46774,-0.26733 0.27923,-0.54291 -0.42964,-0.63039 -1.52967,-1.17863 -1.89295,-1.26467 -1.32939,-0.3966 -2.81115,0.12055 -4.13465,0.39855 -0.11664,-0.007 -0.23288,-0.0126 -0.34992,-0.0126 -0.0954,0 -0.1889,0.005 -0.28512,0.009 -1.31996,-0.27704 -2.79662,-0.79127 -4.12365,-0.39515 -0.36445,0.086 -1.46488,0.63428 -1.89217,1.26467 -0.18811,0.27509 -0.009,0.6683 0.27845,0.54291 0.63111,-0.27851 1.2206,-0.14338 1.80341,0.0913 -2.20989,1.73322 -3.68105,4.78408 -3.68105,8.26409 0,1.82848 1.11653,5.0062 1.11653,5.0062 z m -3.1856,-10.06911 c 0.562,0 1.09995,0.5047 1.28139,1.12586 -0.0915,-0.1054 -0.21208,-0.17156 -0.34718,-0.17156 -0.27923,0 -0.50308,0.28094 -0.50308,0.62601 0,0.34461 0.22385,0.6231 0.50308,0.6231 0.16574,0 0.31065,-0.0982 0.40177,-0.2503 -0.10722,0.75481 -0.6974,1.38639 -1.33637,1.38639 -0.72184,0 -1.36308,-0.78078 -1.36308,-1.66975 0,-0.88945 0.64164,-1.66975 1.36347,-1.66975 z m -4.30311,2.1237 0,-1.9422 0,-0.005 0.0789,0 c 0.43554,0 1.30487,0.43649 1.29976,0.97549 l 0,3.16702 0,0.001 0,0.92689 c -0.0263,0.003 -0.0526,0.005 -0.0805,0.005 -0.42415,0 -1.27698,-0.41361 -1.29622,-0.93173 l -0.002,0 0,-2.1969 z m -2.92187,-2.1237 c 0.56278,0 1.10269,0.5047 1.28374,1.12586 -0.0911,-0.1054 -0.21129,-0.17156 -0.34639,-0.17156 -0.27844,0 -0.50544,0.28094 -0.50544,0.62601 0,0.34461 0.227,0.6231 0.50544,0.6231 0.16534,0 0.31065,-0.0982 0.40098,-0.2503 -0.10643,0.75481 -0.69858,1.38639 -1.33833,1.38639 -0.71988,0 -1.35994,-0.78078 -1.35994,-1.66975 0,-0.88945 0.64006,-1.66975 1.35994,-1.66975 z"
       id="path7" />
  </g>
</svg>
