<?xml version="1.0" encoding="UTF-8" standalone="no"?>
<!-- Created with Inkscape (http://www.inkscape.org/) -->

<svg
   xmlns:dc="http://purl.org/dc/elements/1.1/"
   xmlns:cc="http://creativecommons.org/ns#"
   xmlns:rdf="http://www.w3.org/1999/02/22-rdf-syntax-ns#"
   xmlns:svg="http://www.w3.org/2000/svg"
   xmlns="http://www.w3.org/2000/svg"
   xmlns:sodipodi="http://sodipodi.sourceforge.net/DTD/sodipodi-0.dtd"
   xmlns:inkscape="http://www.inkscape.org/namespaces/inkscape"
   id="svg5547"
   version="1.1"
   inkscape:version="0.92.1 r15371"
   width="263.69333"
   height="90.279999"
   xml:space="preserve"
   sodipodi:docname="logo_website_ingegno.svg"
   inkscape:export-filename="/home/bennymalengier/git/jekyll/IngegnoMakerSpace.github.io/img/logo_website_ingegno.png"
   inkscape:export-xdpi="67.309998"
   inkscape:export-ydpi="67.309998"><metadata
     id="metadata5553"><rdf:RDF><cc:Work
         rdf:about=""><dc:format>image/svg+xml</dc:format><dc:type
           rdf:resource="http://purl.org/dc/dcmitype/StillImage" /><dc:title></dc:title></cc:Work></rdf:RDF></metadata><defs
     id="defs5551" /><sodipodi:namedview
     pagecolor="#ffffff"
     bordercolor="#666666"
     borderopacity="1"
     objecttolerance="10"
     gridtolerance="10"
     guidetolerance="10"
     inkscape:pageopacity="0"
     inkscape:pageshadow="2"
     inkscape:window-width="758"
     inkscape:window-height="480"
     id="namedview5549"
     showgrid="false"
     inkscape:zoom="1.1927865"
     inkscape:cx="155.21774"
     inkscape:cy="55.443748"
     inkscape:window-x="304"
     inkscape:window-y="160"
     inkscape:window-maximized="0"
     inkscape:current-layer="g5555" /><g
     id="g5555"
     inkscape:groupmode="layer"
     inkscape:label="ink_ext_XXXXXX"
     transform="matrix(1.25,0,0,-1.25,0,90.280036)"><g
       id="g4154"
       transform="translate(-16.613968,-12.74327)"><path
         d="m 65.51296,40.00832 h -0.728 c -0.886613,0 -1.563307,0.679147 -1.563307,1.56256 v 21.552 c 0,0.887573 0.676694,1.562987 1.563307,1.562987 h 0.728 c 0.83584,0 1.562027,-0.675414 1.562027,-1.562987 v -21.552 c 0,-0.883413 -0.726187,-1.56256 -1.562027,-1.56256"
         style="fill:#231f20;fill-opacity:1;fill-rule:nonzero;stroke:none;stroke-width:1.06666672"
         id="path5559"
         inkscape:connector-curvature="0" /><path
         d="M 93.263787,39.8512 H 92.48128 c -1.09248,0 -1.818773,1.040427 -2.23584,1.66464 L 78.893333,57.9712 V 41.57088 c 0,-0.883413 -0.728746,-1.56256 -1.56,-1.56256 H 76.60128 c -0.885013,0 -1.56,0.679147 -1.56,1.56256 v 21.657493 c 0,0.729174 0.57248,1.457494 1.45664,1.457494 h 0.884587 c 0.936213,0 1.302506,-0.57216 1.615786,-0.988374 L 90.816213,46.56704 v 16.55584 c 0,0.887573 0.676267,1.562987 1.562987,1.562987 h 0.728747 c 0.831253,0 1.559146,-0.675414 1.559146,-1.562987 V 41.415787 c 0,-0.885334 -0.570453,-1.564587 -1.403306,-1.564587"
         style="fill:#231f20;fill-opacity:1;fill-rule:nonzero;stroke:none;stroke-width:1.06666672"
         id="path5561"
         inkscape:connector-curvature="0" /><path
         d="m 115.75787,40.00832 h -8.3328 c -3.38294,0 -5.88502,2.760427 -5.88502,5.78048 v 13.117867 c 0,3.280853 2.60534,5.7792 5.88502,5.7792 h 11.55733 c 0.88533,0 1.61707,-0.57216 1.61707,-1.457494 v -0.572586 c 0,-0.885334 -0.73174,-1.45792 -1.56587,-1.45792 h -10.7232 c -1.50827,0 -2.91456,-1.19616 -2.91456,-2.863254 v -11.97504 c 0,-1.458346 1.09163,-2.864533 2.86229,-2.864533 h 6.66667 c 1.71413,0 2.80533,1.406187 2.80533,2.864533 v 4.165014 h -4.83946 c -0.88427,0 -1.616,0.574613 -1.616,1.45792 v 0.572053 c 0,0.887573 0.73173,1.460053 1.57013,1.460053 h 8.73707 V 45.7888 c 0,-3.177173 -2.6496,-5.78048 -5.824,-5.78048"
         style="fill:#231f20;fill-opacity:1;fill-rule:nonzero;stroke:none;stroke-width:1.06666672"
         id="path5563"
         inkscape:connector-curvature="0" /><path
         d="m 145.64373,40.00832 h -16.03946 c -0.832,0 -1.4592,0.624213 -1.4592,1.456213 v 21.76384 c 0,0.885334 0.68053,1.457494 1.5104,1.457494 h 15.2576 c 0.8832,0 1.56053,-0.57216 1.56053,-1.457494 v -0.572586 c 0,-0.885334 -0.67733,-1.45792 -1.56053,-1.45792 h -12.9152 v -7.183254 h 11.872 c 0.88426,0 1.56266,-0.57248 1.56266,-1.460053 v -0.572053 c 0,-0.883307 -0.6784,-1.45792 -1.56266,-1.45792 h -11.872 V 43.49504 h 13.64586 c 0.87894,0 1.55734,-0.57088 1.55734,-1.45632 v -0.574187 c 0,-0.883306 -0.6784,-1.456213 -1.55734,-1.456213"
         style="fill:#231f20;fill-opacity:1;fill-rule:nonzero;stroke:none;stroke-width:1.06666672"
         id="path5565"
         inkscape:connector-curvature="0" /><path
         d="m 166.4128,40.00832 h -8.32533 c -3.38774,0 -5.88694,2.760427 -5.88694,5.78048 v 13.117867 c 0,3.280853 2.6048,5.7792 5.88694,5.7792 h 11.55733 c 0.88107,0 1.61387,-0.57216 1.61387,-1.457494 v -0.572586 c 0,-0.885334 -0.7328,-1.45792 -1.568,-1.45792 H 158.9728 c -1.51253,0 -2.92267,-1.19616 -2.92267,-2.863254 v -11.97504 c 0,-1.458346 1.1008,-2.864533 2.87147,-2.864533 h 6.66347 c 1.71093,0 2.8096,1.406187 2.8096,2.864533 v 4.165014 h -4.84374 c -0.88533,0 -1.61493,0.574613 -1.61493,1.45792 v 0.572053 c 0,0.887573 0.7296,1.460053 1.56373,1.460053 h 8.74347 V 45.7888 c 0,-3.177173 -2.65387,-5.78048 -5.8304,-5.78048"
         style="fill:#231f20;fill-opacity:1;fill-rule:nonzero;stroke:none;stroke-width:1.06666672"
         id="path5567"
         inkscape:connector-curvature="0" /><path
         d="m 197.02827,39.8512 h -0.77654 c -1.09653,0 -1.82826,1.040427 -2.2432,1.66464 L 182.66133,57.9712 V 41.57088 c 0,-0.883413 -0.73066,-1.56256 -1.56053,-1.56256 h -0.7328 c -0.88747,0 -1.5584,0.679147 -1.5584,1.56256 v 21.657493 c 0,0.729174 0.5728,1.457494 1.4528,1.457494 h 0.88747 c 0.93866,0 1.30133,-0.57216 1.60853,-0.988374 l 11.824,-17.130453 v 16.55584 c 0,0.887573 0.67947,1.562987 1.5584,1.562987 h 0.73067 c 0.83626,0 1.57013,-0.675414 1.57013,-1.562987 V 41.415787 c 0,-0.885334 -0.58027,-1.564587 -1.41333,-1.564587"
         style="fill:#231f20;fill-opacity:1;fill-rule:nonzero;stroke:none;stroke-width:1.06666672"
         id="path5569"
         inkscape:connector-curvature="0" /><path
         d="m 221.50187,58.334613 c 0,1.56288 -1.30667,2.863254 -2.86507,2.863254 h -6.61227 c -1.61813,0 -2.86933,-1.300374 -2.86933,-2.863254 v -11.97504 c 0,-1.61376 1.2512,-2.864533 2.81387,-2.864533 h 6.66773 c 1.5584,0 2.86507,1.250773 2.86507,2.864533 z M 219.5712,40.00832 h -8.48533 c -3.22667,0 -5.776,2.656213 -5.776,5.831253 V 58.95872 c 0,3.17792 2.75626,5.727147 5.98613,5.727147 h 8.0672 c 3.232,0 5.9904,-2.549227 5.9904,-5.727147 V 45.839573 c 0,-3.17504 -2.60693,-5.831253 -5.7824,-5.831253"
         style="fill:#231f20;fill-opacity:1;fill-rule:nonzero;stroke:none;stroke-width:1.06666672"
         id="path5571"
         inkscape:connector-curvature="0" /></g><g
       id="g4496"
       transform="matrix(0.72073507,0,0,0.72073507,3.353435,2.2813164)"><path
         d="m 15.645867,85.559573 c 1.195413,0 2.214506,-0.76416 2.599146,-1.831253 -0.192533,0.18208 -0.447893,0.29504 -0.736213,0.29504 -0.590933,0 -1.07296,-0.482133 -1.07296,-1.075413 0,-0.59168 0.482027,-1.0704 1.07296,-1.0704 0.351573,0 0.660373,0.168746 0.852907,0.429973 -0.22624,-1.295467 -1.35712,-2.27712 -2.71584,-2.27712 -1.530027,0 -2.763734,1.237973 -2.763734,2.763307 0,1.528746 1.233707,2.765866 2.763734,2.765866 z M 21.53504,82.015787 V 85.36 h 0.169173 c 0.925334,0 1.67744,-0.7504 1.67744,-1.675413 v -7.03296 c -0.05493,-0.0042 -0.111253,-0.0083 -0.1712,-0.0083 -0.900053,0 -1.6288,0.71008 -1.6688,1.6 h -0.0066 z m 7.995413,3.543786 c 1.194987,0 2.2112,-0.76416 2.59872,-1.831253 -0.195413,0.18208 -0.45376,0.29504 -0.73792,0.29504 -0.593386,0 -1.07168,-0.482133 -1.07168,-1.075413 0,-0.59168 0.478294,-1.0704 1.07168,-1.0704 0.3504,0 0.6592,0.168746 0.854614,0.429973 -0.2304,-1.295467 -1.353814,-2.27712 -2.715414,-2.27712 -1.533333,0 -2.767573,1.237973 -2.767573,2.763307 0,1.528746 1.23424,2.765866 2.767573,2.765866 z m 20.243734,-57.83328 c 0.1104,0.34784 0.04043,0.793707 -0.32832,1.218667 -1.912107,2.208427 -4.175467,3.279253 -6.741654,3.273813 1.096214,0.3312 2.20416,0.480427 3.39616,0.07499 0.614614,-0.206293 0.982507,0.470827 0.575894,0.93664 -0.926294,1.069653 -3.276694,1.98336 -4.0496,2.116693 -0.07872,0.01461 -0.157547,0.02795 -0.239147,0.04459 0.007,0.1104 0.01707,0.2208 0.02251,0.3312 h 0.04576 v 4.599253 c 0.151253,0.03413 0.2896,0.08117 0.41504,0.152854 1.10752,-0.821654 2.926293,-0.908267 2.7504,0.480426 -0.815787,6.472107 -0.928747,13.930454 -3.98752,19.923307 -0.799574,0.589227 -1.937494,0.88 -2.983254,0.88 -1.75296,0 -3.24672,-1.44416 -3.382506,-3.207467 v -21.93248 c 0.0042,-0.08832 0.0112,-0.315413 0,-0.48416 v -0.02091 l -0.0054,-0.813654 H 35.16751 C 34.243307,29.269973 29.09376,24.80832 22.903787,24.80832 c -6.60832,0 -12.054614,5.164587 -12.401291,11.751253 v 22.22624 c 0.199584,3.672534 3.250037,6.549654 6.945824,6.549654 3.79712,0 6.88672,-3.175467 6.88672,-7.08 V 34.44704 l -0.73632,-0.07499 c -0.07957,-0.0083 -0.165333,-0.01248 -0.250347,-0.01248 -1.0592,0 -2.135893,0.66048 -2.492586,1.600854 v 4.653333 h -0.0075 V 58.75957 c -0.17536,1.72288 -1.652907,3.061654 -3.4,3.061654 -1.883307,0 -3.417493,-1.5312 -3.417493,-3.417494 0,-0.05003 -0.01664,-20.922453 -0.01664,-21.77248 0.305386,-4.67712 4.20704,-8.336213 8.8896,-8.336213 4.574933,0 8.46208,3.563307 8.877013,8.120747 l 0.02133,21.669226 v 0.306667 l 0.0033,0.828693 h 0.04747 c 0.405866,3.389227 3.298346,6.02592 6.797546,6.02592 0.370347,0 0.738667,-0.03253 1.09248,-0.09003 -0.722133,1.230826 -1.574613,2.374933 -2.541653,3.41248 1.419947,2.464213 2.23456,5.314986 2.23456,8.362133 0,5.94912 -3.09664,11.172907 -7.76672,14.152853 1.277973,0.42464 2.560853,0.685014 3.94336,0.19456 0.612053,-0.215786 0.9904,0.458347 0.593813,0.931307 -0.91424,1.082453 -3.254186,2.02336 -4.023786,2.170773 -2.827947,0.681707 -5.975787,-0.20704 -8.787094,-0.684586 -0.24832,0.01376 -0.495786,0.02091 -0.744213,0.02091 -0.20288,0 -0.4016,-0.0071 -0.605333,-0.01461 -2.805014,0.475413 -5.942507,1.35872 -8.76256,0.678293 C 12.50752,94.23296 10.169163,93.292053 9.260416,92.2096 8.860416,91.73664 9.24208,91.062507 9.8529173,91.278293 11.19456,91.75456 12.44672,91.523307 13.685013,91.12 8.9895787,88.143787 5.862912,82.905387 5.862912,76.93088 c 0,-3.140907 0.8720853,-6.082987 2.3729173,-8.59712 C 6.1237547,66.254187 4.2245867,63.454187 3.6712533,62.254613 0.4458336,56.03168 0.62541653,48.235413 0.00625001,41.48128 -0.1220832,40.08672 1.6937493,40.237547 2.7745813,41.092907 2.979168,40.984533 3.2316693,40.925013 3.5079147,40.938773 V 37.786667 C 3.481248,37.34912 3.462496,36.90752 3.462496,36.461653 3.462496,26.41376 11.079147,18.1408 20.84832,17.095787 V 12.840853 H 11.633387 V 9.381248 h 21.88992 v 3.459605 H 24.30912 v 4.19168 c 3.978773,0.27584 7.62464,1.745814 10.592533,4.054934 4.016214,-2.679147 9.450027,-3.07168 14.085867,-3.957014 0.956267,-0.185493 1.030827,1.108267 0.535787,1.923734 0.20832,0.301226 0.272106,0.747093 0.04171,1.26368 -1.04256,2.35008 -2.60672,3.93632 -4.64832,4.78752 1.67456,0.20416 3.32544,0.45504 4.904107,0.625066 0.971307,0.10624 0.662507,1.358294 -0.04661,1.99584"
         style="fill:#3d8fbd;fill-opacity:1;fill-rule:nonzero;stroke:none;stroke-width:1.06666672"
         id="path5573"
         inkscape:connector-curvature="0" /><path
         d="M 16.119147,4.6908373 H 29.03744 v 3.457088 H 16.119147 Z"
         style="fill:#3d90be;fill-opacity:1;fill-rule:nonzero;stroke:none;stroke-width:1.06666672"
         id="path5575"
         inkscape:connector-curvature="0" /><path
         d="m 20.332053,0 h 4.490422 v 3.459584 h -4.490422 z"
         style="fill:#3d90be;fill-opacity:1;fill-rule:nonzero;stroke:none;stroke-width:1.06666672"
         id="path5577"
         inkscape:connector-curvature="0" /></g></g></svg>